 <svg version="1.0" xmlns="http://www.w3.org/2000/svg" width="700.000000pt" height="700.000000pt" viewBox="0 0 700.000000 700.000000" preserveAspectRatio="xMidYMid meet">
<metadata>
Created by potrace 1.12, written by Peter Selinger 2001-2015
</metadata>
<g transform="translate(0.000000,700.000000) scale(0.100000,-0.100000)" fill="white" stroke="none">
<path d="M3414 6465 c-2 -5 -5 -622 -7 -1370 l-2 -1360 -73 -3 c-62 -2 -73 -5
-68 -18 3 -9 6 -24 6 -35 0 -19 11 -19 408 -17 l407 3 5 1395 c3 767 2 1399
-1 1403 -9 12 -671 14 -675 2z"></path>
<path d="M2610 3640 l0 -90 35 0 35 0 0 49 c0 31 5 53 15 61 8 7 15 25 15 41
0 28 -2 29 -50 29 l-50 0 0 -90z"></path>
<path d="M2844 3714 c3 -9 6 -24 6 -35 0 -19 7 -19 138 -17 l137 3 3 33 3 32
-146 0 c-130 0 -146 -2 -141 -16z"></path>
<path d="M4104 3716 c-3 -8 -4 -23 -2 -33 3 -16 16 -18 143 -18 l140 0 3 33 3
32 -141 0 c-113 0 -142 -3 -146 -14z"></path>
<path d="M4524 3714 c3 -9 6 -24 6 -35 0 -19 7 -19 138 -17 l137 3 3 33 3 32
-146 0 c-130 0 -146 -2 -141 -16z"></path>
<path d="M4944 3714 c3 -9 6 -24 6 -35 0 -19 7 -19 138 -17 l137 3 3 33 3 32
-146 0 c-130 0 -146 -2 -141 -16z"></path>
<path d="M5364 3714 c3 -9 6 -24 6 -35 0 -19 7 -19 138 -17 l137 3 3 33 3 32
-146 0 c-130 0 -146 -2 -141 -16z"></path>
<path d="M5784 3714 c3 -9 6 -24 6 -35 0 -19 7 -19 138 -17 l137 3 3 33 3 32
-146 0 c-130 0 -146 -2 -141 -16z"></path>
<path d="M6000 3455 l0 -146 33 3 32 3 3 138 c2 130 2 137 -17 137 -11 0 -26
3 -35 6 -14 5 -16 -11 -16 -141z"></path>
<path d="M2617 3403 c-4 -3 -7 -66 -7 -140 0 -124 1 -133 19 -133 11 0 26 -3
35 -6 14 -5 16 11 16 140 l0 146 -28 0 c-16 0 -32 -3 -35 -7z"></path>
<path d="M4235 3370 c-105 -15 -236 -49 -275 -71 -8 -5 -22 -12 -30 -15 -79
-30 -217 -131 -290 -211 -58 -63 -127 -161 -158 -223 -13 -25 -27 -52 -31 -60
-32 -62 -41 -84 -41 -104 0 -12 -6 -30 -14 -41 -7 -11 -16 -38 -19 -60 -3 -22
-12 -80 -22 -129 -24 -127 -18 -890 8 -979 9 -32 17 -70 17 -85 0 -15 7 -36
15 -46 8 -11 15 -31 15 -45 0 -14 7 -35 15 -45 8 -11 15 -26 15 -33 0 -17 95
-178 138 -233 58 -74 161 -167 257 -230 49 -33 94 -60 101 -60 6 0 25 -7 40
-15 16 -8 37 -15 47 -15 10 0 28 -5 40 -12 82 -44 413 -58 562 -24 44 10 84
22 90 27 5 5 20 9 33 9 13 0 36 6 50 14 15 7 57 28 94 46 118 57 228 149 307
256 39 53 71 102 71 109 0 7 7 18 15 25 8 7 15 21 15 30 0 10 6 31 14 47 8 15
19 48 26 73 15 59 33 218 26 236 -5 12 -38 14 -183 12 l-178 -3 1 -30 c4 -80
-27 -204 -76 -303 -43 -88 -216 -232 -278 -232 -10 0 -23 -5 -29 -11 -18 -18
-148 -38 -243 -38 -85 0 -187 16 -225 36 -11 6 -42 21 -69 33 -63 29 -173 134
-225 213 -23 35 -41 68 -41 74 0 6 -6 16 -14 22 -8 7 -24 44 -36 84 -12 40
-26 79 -30 88 -5 9 -16 68 -25 131 -22 151 -16 783 8 888 20 88 66 221 83 241
8 8 14 20 14 26 0 6 21 42 48 80 63 91 198 213 235 213 7 0 22 7 33 15 10 8
30 15 45 15 14 0 31 6 37 12 17 17 221 23 287 9 115 -24 133 -29 190 -56 112
-53 200 -144 260 -270 28 -60 59 -206 50 -236 -10 -32 18 -38 190 -40 l170 -2
-3 104 c-3 97 -23 188 -52 241 -6 10 -10 24 -10 32 0 27 -83 158 -138 218 -31
33 -81 79 -112 103 -63 49 -199 123 -245 135 -16 5 -43 13 -60 19 -101 34
-391 58 -510 41z"></path>
<path d="M6000 3035 l0 -146 33 3 32 3 3 138 c2 130 2 137 -17 137 -11 0 -26
3 -35 6 -14 5 -16 -11 -16 -141z"></path>
<path d="M2617 2983 c-4 -3 -7 -66 -7 -140 0 -124 1 -133 19 -133 11 0 26 -3
35 -6 14 -5 16 11 16 140 l0 146 -28 0 c-16 0 -32 -3 -35 -7z"></path>
<path d="M1097 2863 c-6 -12 11 -330 22 -398 24 -157 95 -338 189 -480 58 -89
195 -225 294 -293 86 -58 263 -152 288 -152 9 0 20 -3 24 -7 24 -25 202 -69
334 -83 45 -5 87 -12 92 -15 5 -3 84 -8 175 -12 l165 -6 0 367 0 367 -32 -3
-33 -3 -1 -85 c-1 -47 -2 -90 -3 -96 -1 -14 -193 -9 -251 6 -194 49 -269 88
-379 198 -71 70 -95 102 -126 167 -20 44 -41 88 -46 97 -5 10 -9 27 -9 39 0
11 -5 30 -11 41 -15 27 -29 127 -38 253 l-6 100 -322 3 c-177 1 -323 -1 -326
-5z"></path>
<path d="M6000 2615 l0 -146 33 3 32 3 3 138 c2 130 2 137 -17 137 -11 0 -26
3 -35 6 -14 5 -16 -11 -16 -141z"></path>
<path d="M2617 2564 c-4 -4 -7 -67 -7 -141 l0 -133 35 0 35 0 2 125 c0 69 1
131 2 138 1 13 -55 23 -67 11z"></path>
<path d="M6000 2195 l0 -146 33 3 32 3 3 138 c2 130 2 137 -17 137 -11 0 -26
3 -35 6 -14 5 -16 -11 -16 -141z"></path>
<path d="M6000 1775 l0 -146 33 3 32 3 3 138 c2 130 2 137 -17 137 -11 0 -26
3 -35 6 -14 5 -16 -11 -16 -141z"></path>
<path d="M6000 1355 l0 -146 33 3 32 3 3 138 c2 130 2 137 -17 137 -11 0 -26
3 -35 6 -14 5 -16 -11 -16 -141z"></path>
<path d="M2617 1303 c-4 -3 -7 -66 -7 -140 0 -124 1 -133 19 -133 11 0 26 -3
35 -6 14 -5 16 11 16 140 l0 146 -28 0 c-16 0 -32 -3 -35 -7z"></path>
<path d="M6000 935 l0 -146 33 3 32 3 3 138 c2 130 2 137 -17 137 -11 0 -26 3
-35 6 -14 5 -16 -11 -16 -141z"></path>
<path d="M2617 884 c-4 -4 -7 -67 -7 -141 l0 -133 35 0 35 0 2 125 c0 69 1
131 2 138 1 13 -55 23 -67 11z"></path>
<path d="M6000 521 l0 -141 35 0 35 0 0 135 c0 126 -1 135 -19 135 -11 0 -26
3 -35 6 -14 5 -16 -10 -16 -135z"></path>
<path d="M2614 457 c-3 -8 -4 -49 -2 -93 l3 -79 45 0 c41 0 45 2 48 26 2 14
-4 31 -12 39 -11 8 -16 30 -16 66 0 53 0 54 -30 54 -17 0 -33 -6 -36 -13z"></path>
<path d="M2850 315 l0 -36 138 3 137 3 0 30 0 30 -137 3 -138 3 0 -36z"></path>
<path d="M3270 315 l0 -36 138 3 137 3 0 30 0 30 -137 3 -138 3 0 -36z"></path>
<path d="M3689 345 c-3 -3 -4 -19 -1 -35 l4 -31 137 3 136 3 0 30 0 30 -136 3
c-74 1 -137 0 -140 -3z"></path>
<path d="M4110 315 l0 -36 138 3 137 3 0 30 0 30 -137 3 -138 3 0 -36z"></path>
<path d="M4530 315 l0 -36 138 3 137 3 0 30 0 30 -137 3 -138 3 0 -36z"></path>
<path d="M4950 315 l0 -36 138 3 137 3 0 30 0 30 -137 3 -138 3 0 -36z"></path>
<path d="M5369 345 c-3 -3 -4 -19 -1 -35 l4 -31 137 3 136 3 0 30 0 30 -136 3
c-74 1 -137 0 -140 -3z"></path>
<path d="M5790 315 l0 -36 138 3 137 3 0 30 0 30 -137 3 -138 3 0 -36z"></path>
</g>
</svg>
